<svg style="fill-rule:evenodd;clip-rule:evenodd;stroke-linecap:round;stroke-linejoin:round;" xmlns:vectornator="http://vectornator.io" xmlns:xlink="http://www.w3.org/1999/xlink" xmlns="http://www.w3.org/2000/svg" xml:space="preserve" version="1.1" viewBox="0 0 512 512">
  <path d="M71.8228+320L103.823+320C112.659+320+119.823+327.163+119.823+336L119.823+448L439.823+448L439.823+128L295.823+128C286.986+128+279.823+120.837+279.823+112L279.823+80C279.823+71.1634+286.986+64+295.823+64L455.823+64C482.332+64+503.823+85.4903+503.823+112L503.823+464C503.823+490.51+482.332+512+455.823+512L103.823+512C77.3131+512+55.8228+490.51+55.8228+464L55.8228+336C55.8228+327.163+62.9862+320+71.8228+320Z" opacity="1" fill="#000000"/>
  <path d="M360.059+395.52L232.059+395.52C210.689+395.52+200.009+369.61+215.059+354.52L250.789+318.79L7.05893+75.1503C2.54002+70.6471+0+64.5299+0+58.1503C-5.57726e-07+51.7707+2.54002+45.6535+7.05893+41.1503L29.7289+18.5203C34.2322+14.0014+40.3493+11.4614+46.7289+11.4614C53.1086+11.4614+59.2257+14.0014+63.7289+18.5203L307.339+262.2L343.059+226.52C358.059+211.52+384.059+222.02+384.059+243.52L384.059+371.52C384.059+384.775+373.314+395.52+360.059+395.52Z" opacity="1" fill="#000000"/>
</svg>
