<?xml version="1.0" encoding="UTF-8" standalone="no"?>
<!-- Generator: Adobe Illustrator 15.0.2, SVG Export Plug-In . SVG Version: 6.00 Build 0)  -->

<svg
   xmlns:dc="http://purl.org/dc/elements/1.1/"
   xmlns:cc="http://creativecommons.org/ns#"
   xmlns:rdf="http://www.w3.org/1999/02/22-rdf-syntax-ns#"
   xmlns:svg="http://www.w3.org/2000/svg"
   xmlns="http://www.w3.org/2000/svg"
   xmlns:sodipodi="http://sodipodi.sourceforge.net/DTD/sodipodi-0.dtd"
   xmlns:inkscape="http://www.inkscape.org/namespaces/inkscape"
   version="1.1"
   id="Ebene_1"
   x="0px"
   y="0px"
   width="144"
   height="144"
   viewBox="0 0 144 144"
   enable-background="new 0 0 595.22 842"
   xml:space="preserve"
   ><defs
   id="defs7" /><sodipodi:namedview
   pagecolor="#ffffff"
   bordercolor="#666666"
   borderopacity="1"
   objecttolerance="10"
   gridtolerance="10"
   guidetolerance="10"
   inkscape:pageopacity="0"
   inkscape:pageshadow="2"
   inkscape:window-width="640"
   inkscape:window-height="480"
   id="namedview5"
   showgrid="false"
   fit-margin-top="0"
   fit-margin-left="0"
   fit-margin-right="0"
   fit-margin-bottom="0"
   inkscape:zoom="0.28028504"
   inkscape:cx="218.58999"
   inkscape:cy="-212.25999"
   inkscape:window-x="0"
   inkscape:window-y="0"
   inkscape:window-maximized="0"
   inkscape:current-layer="Ebene_1" />
<path
   d="M 71.616 37.251 C 71.985 40.422 72.575 42.781 73.46 44.256 C 74.344 45.804 75.966 47.573 78.399 49.49 C 75.966 52.956 74.197 56.421 73.165 59.812 C 72.132 63.204 71.616 67.48 71.616 72.568 C 71.616 77.434 72.059 81.415 73.091 84.733 C 74.123 87.977 75.893 91.516 78.399 95.202 C 76.04 97.119 74.492 98.889 73.533 100.437 C 72.649 102.059 71.985 104.345 71.616 107.441 C 73.46 107.146 74.787 106.851 75.671 106.63 C 76.482 106.409 78.178 105.745 80.832 104.713 C 84.888 103.017 88.132 102.206 90.491 102.206 C 92.408 102.206 94.03 102.796 95.283 103.976 C 96.537 105.156 97.2 106.704 97.2 108.473 C 97.2 110.39 96.537 111.939 95.283 113.192 C 94.03 114.445 92.482 115.109 90.565 115.109 C 88.574 115.109 85.551 114.224 81.349 112.455 C 79.137 111.496 77.367 110.906 76.04 110.538 C 75.008 110.317 73.533 110.169 71.616 110.095 C 71.985 112.971 72.28 114.962 72.501 115.846 C 72.722 116.805 73.238 118.132 74.049 119.901 C 76.409 125.136 77.662 129.117 77.662 131.698 C 77.662 133.836 76.925 135.679 75.524 137.08 C 74.123 138.555 72.427 139.292 70.363 139.292 C 68.372 139.292 66.677 138.481 65.276 137.006 C 63.875 135.532 63.211 133.689 63.211 131.477 C 63.211 130.371 63.359 129.191 63.654 127.938 C 63.949 126.611 64.907 123.883 66.455 119.68 C 67.635 116.51 68.372 113.339 68.741 110.095 C 66.529 110.169 64.833 110.317 63.654 110.612 C 62.4 110.906 60.631 111.57 58.271 112.676 C 54.585 114.298 51.931 115.109 50.088 115.109 C 48.171 115.109 46.549 114.519 45.369 113.339 C 44.189 112.16 43.599 110.612 43.599 108.768 C 43.599 106.778 44.189 105.229 45.443 103.976 C 46.77 102.796 48.392 102.206 50.456 102.206 C 52.373 102.206 55.101 102.944 58.64 104.492 C 60.999 105.451 62.769 106.114 64.096 106.409 C 65.128 106.63 66.677 106.778 68.741 106.925 C 68.299 103.976 67.635 101.764 66.75 100.216 C 65.866 98.741 64.17 97.045 61.81 95.202 C 64.022 92.253 65.571 89.378 66.529 86.576 C 68.004 82.152 68.741 77.286 68.741 71.756 C 68.741 66.079 68.004 61.213 66.455 57.011 C 65.571 54.43 64.022 51.923 61.81 49.49 C 64.096 47.721 65.718 46.099 66.603 44.551 C 67.488 43.002 68.151 40.569 68.741 37.251 C 66.75 37.399 65.349 37.546 64.465 37.768 C 63.654 37.989 61.589 38.726 58.271 40.053 C 54.954 41.38 52.078 42.044 49.793 42.044 C 47.949 42.044 46.401 41.454 45.221 40.201 C 44.042 39.021 43.452 37.546 43.452 35.703 C 43.452 33.934 44.042 32.459 45.148 31.279 C 46.327 30.173 47.876 29.584 49.719 29.584 C 51.931 29.584 55.027 30.395 59.156 32.017 C 61.589 33.049 63.432 33.712 64.612 34.007 C 65.497 34.229 66.824 34.45 68.741 34.597 C 68.593 32.459 68.446 30.985 68.151 30.026 C 67.635 28.109 66.529 24.939 64.907 20.662 C 63.875 18.082 63.359 16.681 63.211 16.312 C 63.064 15.428 62.99 14.322 62.99 13.068 C 62.99 10.635 63.654 8.718 65.055 7.244 C 66.455 5.769 68.151 5.032 70.216 5.032 C 72.28 5.032 73.976 5.696 75.229 7.096 C 76.556 8.497 77.22 10.562 77.22 13.363 C 77.22 14.838 77.072 16.091 76.777 17.05 C 76.556 18.008 75.671 20.22 74.197 23.612 C 72.722 27.003 71.838 30.69 71.616 34.597 C 73.681 34.45 75.229 34.229 76.114 34.007 C 76.999 33.786 78.842 33.123 81.57 31.943 C 85.256 30.321 88.279 29.584 90.712 29.584 C 92.629 29.584 94.177 30.173 95.357 31.279 C 96.537 32.459 97.2 34.007 97.2 35.777 C 97.2 37.62 96.537 39.168 95.283 40.348 C 94.03 41.601 92.408 42.191 90.417 42.191 C 88.132 42.191 85.109 41.38 81.275 39.832 C 78.842 38.726 77.146 38.062 76.188 37.768 C 75.229 37.546 73.681 37.399 71.616 37.251"
   id="double-dagger"
   inkscape:connector-curvature="0" />
</svg>